<svg id="Capa_1" data-name="Capa 1" xmlns="http://www.w3.org/2000/svg" viewBox="0 0 50 51"><defs><style>.cls-1{stroke:#000;stroke-miterlimit:10;stroke-width:0.5px;}.cls-2{fill-rule:evenodd;}</style></defs><title>no-sol</title><path class="cls-1" d="M25.42,34.79a9.36,9.36,0,1,1,9.36-9.36A9.37,9.37,0,0,1,25.42,34.79Zm0-17.73a8.36,8.36,0,1,0,8.36,8.36A8.37,8.37,0,0,0,25.42,17.06Z"/><path class="cls-1" d="M25.42,13a.5.5,0,0,1-.5-.5v-4a.5.5,0,1,1,1,0v4A.5.5,0,0,1,25.42,13Z"/><path class="cls-1" d="M25.42,42.85a.5.5,0,0,1-.5-.5v-4a.5.5,0,0,1,1,0v4A.5.5,0,0,1,25.42,42.85Z"/><path class="cls-1" d="M12.48,25.92h-4a.5.5,0,0,1,0-1h4a.5.5,0,0,1,0,1Z"/><path class="cls-1" d="M42.35,25.92h-4a.5.5,0,0,1,0-1h4a.5.5,0,0,1,0,1Z"/><path class="cls-1" d="M16.27,16.77a.5.5,0,0,1-.35-.15L13.1,13.81a.5.5,0,0,1,.71-.71l2.82,2.81a.5.5,0,0,1,0,.71A.49.49,0,0,1,16.27,16.77Z"/><path class="cls-1" d="M37.39,37.89a.5.5,0,0,1-.35-.15l-2.82-2.82a.5.5,0,0,1,.71-.71L37.75,37a.5.5,0,0,1-.35.85Z"/><path class="cls-1" d="M13.46,37.89A.5.5,0,0,1,13.1,37l2.82-2.82a.5.5,0,0,1,.71.71l-2.82,2.82A.5.5,0,0,1,13.46,37.89Z"/><path class="cls-1" d="M34.58,16.77a.5.5,0,0,1-.35-.85L37,13.1a.5.5,0,0,1,.71.71l-2.82,2.81A.49.49,0,0,1,34.58,16.77Z"/><path class="cls-2" d="M7.86,34.92c-.75.36-1.51.3-1.71-.14s.25-1.08,1-1.43l35-16.75c.75-.36,1.51-.3,1.71.14s-.25,1.08-1,1.43Z"/><path class="cls-2" d="M42.14,34.92c.75.36,1.51.3,1.71-.14s-.25-1.08-1-1.43L7.86,16.6c-.75-.36-1.51-.3-1.71.14s.25,1.08,1,1.43Z"/></svg>