<svg id="Capa_1" data-name="Capa 1" xmlns="http://www.w3.org/2000/svg" viewBox="0 0 50 51"><defs><style>.cls-1{fill-rule:evenodd;}</style></defs><title>logos cuidado de la ropa</title><path class="cls-1" d="M44.82,18.81H37.67l-.2.23-3.83,4.36-3.29-3.76,5.1-6.36a.71.71,0,0,0-.09-1,.67.67,0,0,0-1,.1l-5.14,6.41H22l-.2.23-.7.8-6-7.44a.67.67,0,0,0-1-.1.71.71,0,0,0-.09,1l6.1,7.6-1.68,1.92L15.21,19l-.2-.23H4.5V32.19h7.64l.2-.23,3.56-4.06,3.17,3.61-5,6.2a.71.71,0,0,0,.09,1,.67.67,0,0,0,1-.1l5.14-6.4h7.49L28,32l.56-.64,5.84,7.28a.67.67,0,0,0,1,.1.71.71,0,0,0,.09-1l-6-7.44,1.65-1.88L34.26,32l.2.23h11V18.81ZM22.63,20.22h5.49L24.77,24.4,22,20.94ZM11.53,30.78H5.87V20.22H14.4l3.2,3.65-2.2,2.51Zm5.29-3.94L19,24.34l.41-.47h0L21.07,22l2.81,3.5-3.94,4.91Zm10.35,3.94H21.42l3.35-4.18,2.9,3.61ZM25.65,25.5l3.81-4.75,3.25,3.71-2.1,2.4-2,2.31Zm18.48,5.28H35.07l-3-3.45,6.23-7.11h5.86Z"/></svg>