<svg id="Capa_1" data-name="Capa 1" xmlns="http://www.w3.org/2000/svg" viewBox="0 0 50 51"><defs><style>.cls-1{fill-rule:evenodd;}</style></defs><title>logos cuidado de la ropa</title><ellipse cx="21.67" cy="28.43" rx="2.33" ry="2.39"/><ellipse cx="27.67" cy="28.43" rx="2.33" ry="2.39"/><path class="cls-1" d="M45.56,36.52l-4.38-2.09-.07-.55s0,0,0,0l-1.47-12.3,5.91-2.83a.86.86,0,0,0,.4-1.13.82.82,0,0,0-1.1-.41l-5.42,2.6-.73-6.13a.84.84,0,0,0-.83-.77H13.73a.85.85,0,0,0,0,1.7H37.15l.71,6-1.69.81H17.51a13.9,13.9,0,0,0-3,.31L5.14,17.17a.82.82,0,0,0-1.1.41.86.86,0,0,0,.4,1.13l7.78,3.72A8.2,8.2,0,0,0,9,25.4c-1.52,2.38-2,5.48-2,8.55v.85H8L4.44,36.52A.86.86,0,0,0,4,37.65a.82.82,0,0,0,1.1.41L12,34.8H38l6.81,3.26a.82.82,0,0,0,1.1-.41A.86.86,0,0,0,45.56,36.52ZM38.1,23,39.36,33.1h-.94L27,27.61,36.53,23ZM17.51,23h15.1L25,26.68,17.4,23ZM8.67,33.1a13.39,13.39,0,0,1,1.67-6.77,6.75,6.75,0,0,1,4-2.89L23,27.61,11.58,33.1Zm6.84,0L25,28.55l9.49,4.54Z"/></svg>