<?xml version="1.0" encoding="UTF-8"?>
<svg xmlns="http://www.w3.org/2000/svg" xmlns:xlink="http://www.w3.org/1999/xlink" width="96pt" height="96pt" viewBox="0 0 96 96" version="1.1">
<g id="surface865">
<path style=" stroke:none;fill-rule:evenodd;fill:rgb(100%,100%,100%);fill-opacity:1;" d="M 73.511719 22.511719 C 66.738281 15.738281 57.738281 12 48.152344 12 C 28.394531 12 12.304688 28.078125 12.304688 47.835938 C 12.292969 54.152344 13.945312 60.316406 17.085938 65.753906 L 12 84.328125 L 31.007812 79.335938 C 36.234375 82.195312 42.140625 83.695312 48.140625 83.707031 L 48.152344 83.707031 C 67.910156 83.707031 83.988281 67.628906 84 47.859375 C 84 38.285156 80.273438 29.285156 73.511719 22.511719 Z M 48.152344 77.648438 L 48.140625 77.648438 C 42.796875 77.648438 37.546875 76.207031 32.976562 73.5 L 31.886719 72.855469 L 20.601562 75.808594 L 23.613281 64.816406 L 22.910156 63.691406 C 19.921875 58.945312 18.351562 53.460938 18.351562 47.835938 C 18.351562 31.417969 31.722656 18.058594 48.164062 18.058594 C 56.121094 18.058594 63.597656 21.164062 69.222656 26.789062 C 74.847656 32.425781 77.941406 39.902344 77.941406 47.859375 C 77.941406 64.289062 64.570312 77.648438 48.152344 77.648438 Z M 64.488281 55.335938 C 63.597656 54.890625 59.191406 52.722656 58.371094 52.429688 C 57.550781 52.125 56.953125 51.984375 56.355469 52.875 C 55.757812 53.777344 54.046875 55.792969 53.519531 56.390625 C 53.003906 56.976562 52.476562 57.058594 51.585938 56.613281 C 50.683594 56.167969 47.800781 55.21875 44.378906 52.160156 C 41.71875 49.792969 39.914062 46.851562 39.398438 45.960938 C 38.871094 45.058594 39.339844 44.578125 39.785156 44.132812 C 40.195312 43.734375 40.6875 43.089844 41.132812 42.5625 C 41.578125 42.046875 41.730469 41.671875 42.035156 41.074219 C 42.328125 40.476562 42.175781 39.949219 41.953125 39.503906 C 41.730469 39.058594 39.9375 34.640625 39.1875 32.847656 C 38.460938 31.101562 37.722656 31.347656 37.171875 31.3125 C 36.65625 31.289062 36.058594 31.289062 35.460938 31.289062 C 34.863281 31.289062 33.890625 31.511719 33.070312 32.414062 C 32.25 33.304688 29.941406 35.472656 29.941406 39.878906 C 29.941406 44.285156 33.152344 48.550781 33.597656 49.148438 C 34.042969 49.734375 39.914062 58.78125 48.902344 62.660156 C 51.035156 63.585938 52.699219 64.136719 54 64.546875 C 56.144531 65.226562 58.101562 65.132812 59.648438 64.910156 C 61.371094 64.652344 64.945312 62.742188 65.695312 60.644531 C 66.433594 58.558594 66.433594 56.765625 66.210938 56.390625 C 65.988281 56.015625 65.390625 55.792969 64.488281 55.335938 Z M 64.488281 55.335938 "/>
</g>
</svg>
